<svg id="グループ_56447" data-name="グループ 56447" xmlns="http://www.w3.org/2000/svg" xmlns:xlink="http://www.w3.org/1999/xlink" width="82.331" height="62.382" viewBox="0 0 82.331 62.382">
  <defs>
    <clipPath id="clip-path">
      <rect id="長方形_25647" data-name="長方形 25647" width="82.331" height="62.382" fill="none"/>
    </clipPath>
  </defs>
  <rect id="長方形_25645" data-name="長方形 25645" width="71.279" height="46.518" transform="translate(0.005)" fill="#1b982a"/>
  <g id="グループ_54526" data-name="グループ 54526">
    <g id="グループ_54525" data-name="グループ 54525" clip-path="url(#clip-path)">
      <path id="パス_54519" data-name="パス 54519" d="M124.389,69.162a4.454,4.454,0,1,0,4.452-4.455,4.457,4.457,0,0,0-4.452,4.455m.516,0a3.938,3.938,0,1,1,3.936,3.936,3.942,3.942,0,0,1-3.936-3.936" transform="translate(-50.966 -26.513)" fill="#1a1311"/>
      <path id="パス_54520" data-name="パス 54520" d="M132.81,73.052h-.855l-1.728-2.675h-.758v2.675h-.685V67.166h1.666a2,2,0,0,1,1.324.406,1.4,1.4,0,0,1,.486,1.135,1.446,1.446,0,0,1-.354.957,1.827,1.827,0,0,1-.977.57Zm-3.342-3.271h.863a1.294,1.294,0,0,0,.882-.3.94.94,0,0,0,.338-.74c0-.658-.4-.984-1.2-.984h-.881Z" transform="translate(-52.767 -27.52)" fill="#1a1311"/>
      <path id="パス_54521" data-name="パス 54521" d="M17.921,41.111a8.825,8.825,0,0,1-8.764-9.154c0-4.786,4.74-8.609,8.764-10.9,4.023,2.287,8.762,6.11,8.762,10.9a8.824,8.824,0,0,1-8.762,9.154m26.855-9.257c0-4.789,4.738-8.612,8.761-10.9,4.026,2.286,8.762,6.109,8.762,10.9a8.77,8.77,0,1,1-17.523,0m26.5-19.586A40.161,40.161,0,0,0,53.26,16.339,38.36,38.36,0,0,0,35.64,12.268a38.348,38.348,0,0,0-17.62,4.071A40.116,40.116,0,0,0,.012,12.268v4.071a35.993,35.993,0,0,1,13.554,2.574C9.162,21.858,4.8,26.32,4.8,31.953A13.321,13.321,0,0,0,18.02,45.084,13.059,13.059,0,0,0,30.927,31.953c0-5.633-4.047-10.095-8.453-13.04A34.055,34.055,0,0,1,35.64,16.339a34.048,34.048,0,0,1,13.165,2.574c-4.4,2.945-8.453,7.407-8.453,13.04A13.059,13.059,0,0,0,53.26,45.084,13.237,13.237,0,0,0,66.377,31.953c0-5.633-4.258-10.095-8.663-13.04a36.043,36.043,0,0,1,13.565-2.574Z" transform="translate(-0.005 -5.027)" fill="#fff"/>
      <path id="長方形_25646" data-name="長方形 25646" d="M4.024,0H67.253a4.024,4.024,0,0,1,4.024,4.024V8.273A4.027,4.027,0,0,1,67.25,12.3H4.024A4.024,4.024,0,0,1,0,8.276V4.024A4.024,4.024,0,0,1,4.024,0Z" transform="translate(0 50.082)" fill="#1b982a"/>
      <path id="パス_54522" data-name="パス 54522" d="M35.6,90.8H33.891v-.465H35.6Zm-5.928,2.929c.27-.087.4-.126.954-.309v2.112c0,.087,0,.183-.184.183h-.79l.145,1.022h1.041c.627,0,.753-.4.753-.684V93.062c.462-.2.5-.212.742-.328l-.048-.879a6.425,6.425,0,0,1-.694.252V90.266h.646l.452.531c.175-.174.232-.231.357-.367v2.2h5.677v-.714H36.445v-.54h1.831V90.8H36.445v-.465h1.831v-.6H36.445v-.5H38.5v-.7H36.666a5.73,5.73,0,0,0,.356-.753l-1.041-.086a5.121,5.121,0,0,1-.385.839H34.334a5.119,5.119,0,0,0,.338-.783l-1.051-.057a5.75,5.75,0,0,1-1.34,2.129V89.35h-.694V87.692h-.964V89.35H29.591v.915h1.031V92.4a10.079,10.079,0,0,1-1.08.27l.125,1.051m4.271-4.491H35.6v.5H33.891V89.3l.048-.067M35.6,91.914H33.891v-.54H35.6Zm-3.257,1.1v.809h1.446c-.125,1.061-.434,1.707-2.015,2.132l.57.78a3.2,3.2,0,0,0,2.467-2.912h1.4l-.337.956H37.5c-.068.915-.154.992-.482.992H35.6l.27.964h1.425c.887,0,1.051-.54,1.206-2.786H37.09l.3-.934Z" transform="translate(-12.105 -35.93)" fill="#fff"/>
      <path id="パス_54523" data-name="パス 54523" d="M47.509,91.971h2.863V92.7H47.509Zm0,4.241h.973v-2.64h1.889v3.18h.973v-3.18h1.937v1.385c0,.156,0,.282-.183.282H52.01l.183.973H53.6c.587,0,.665-.482.665-.763V93.294h.963V91.114H46.554v2.179h.955v2.919m3.836-4.241h2.921V92.7H51.345ZM47.509,88.4H46.333v.848h1.176v1.378h6.757V89.244h1.2V88.4h-1.2v-.7H53.3v.7H51.345v-.7h-.954v.7H48.482v-.7h-.973v.7M53.3,89.871H51.345v-.626H53.3Zm-2.91,0H48.483v-.626h1.908Z" transform="translate(-18.984 -35.93)" fill="#fff"/>
      <path id="パス_54524" data-name="パス 54524" d="M65.173,92.325c0-1.689.856-3.449,2.9-3.449s2.9,1.76,2.9,3.449-.856,3.451-2.9,3.451-2.9-1.759-2.9-3.451m-1.114,0c0,2.277,1.349,4.389,4.013,4.389s4.013-2.113,4.013-4.389-1.349-4.389-4.013-4.389-4.013,2.113-4.013,4.389" transform="translate(-26.247 -36.03)" fill="#fff"/>
      <path id="パス_54525" data-name="パス 54525" d="M79.464,88.275h1.115v4.177l4.248-4.177h1.444l-3.533,3.379,3.672,5H85l-3.027-4.236-1.4,1.3v2.932H79.464Z" transform="translate(-32.559 -36.169)" fill="#fff"/>
    </g>
  </g>
</svg>
